<?xml version="1.0" encoding="UTF-8" standalone="no"?>
<!DOCTYPE svg PUBLIC "-//W3C//DTD SVG 1.1//EN" "http://www.w3.org/Graphics/SVG/1.1/DTD/svg11.dtd">
<svg width="100%" height="100%" viewBox="0 0 130 125" version="1.1" xmlns="http://www.w3.org/2000/svg" xmlns:xlink="http://www.w3.org/1999/xlink" xml:space="preserve" xmlns:serif="http://www.serif.com/" style="fill-rule:evenodd;clip-rule:evenodd;stroke-linejoin:round;stroke-miterlimit:2;">
    <g id="Page-1" serif:id="Page 1" transform="matrix(0.29039,0,0,0.43993,0,0)">
        <rect x="0" y="0" width="444.862" height="282.261" style="fill:none;"/>
        <g id="Layer-2" serif:id="Layer 2">
        </g>
        <g id="Layer-1" serif:id="Layer 1">
        </g>
        <g transform="matrix(28.697071,0,0,18.94242,283.647593,187.113224)">
            <path d="M0,-4.735C0,-4.692 -0.002,-4.65 -0.005,-4.608C0.205,-4.693 0.435,-4.74 0.675,-4.74C1.677,-4.74 2.489,-3.928 2.489,-2.926C2.489,-2.076 1.904,-1.362 1.114,-1.166C1.379,-0.851 1.538,-0.444 1.538,0C1.538,1.002 0.726,1.814 -0.275,1.814C-0.924,1.814 -1.493,1.473 -1.814,0.96C-2.134,1.473 -2.703,1.814 -3.352,1.814C-4.354,1.814 -5.166,1.002 -5.166,0C-5.166,-0.444 -5.006,-0.851 -4.741,-1.166C-5.531,-1.362 -6.117,-2.076 -6.117,-2.926C-6.117,-3.928 -5.305,-4.74 -4.303,-4.74C-4.062,-4.74 -3.833,-4.693 -3.623,-4.608C-3.626,-4.65 -3.628,-4.692 -3.628,-4.735C-3.628,-5.737 -2.816,-6.549 -1.814,-6.549C-0.812,-6.549 0,-5.737 0,-4.735M-4.43,-8.576C-4.91,-8.02 -5.211,-7.304 -5.211,-6.512C-5.211,-6.437 -5.207,-6.363 -5.202,-6.289C-5.57,-6.438 -5.972,-6.521 -6.393,-6.521C-8.147,-6.521 -9.568,-5.099 -9.568,-3.346C-9.568,-1.857 -8.543,-0.608 -7.16,-0.265C-7.624,0.287 -7.904,0.999 -7.904,1.776C-7.904,2.963 -7.245,3.985 -6.281,4.53C-5.82,4.79 -5.296,4.951 -4.729,4.951C-3.593,4.951 -2.597,4.354 -2.036,3.458C-1.559,4.22 -0.766,4.762 0.159,4.908C0.322,4.934 0.487,4.951 0.657,4.951C2.41,4.951 3.832,3.53 3.832,1.776C3.832,0.999 3.552,0.287 3.088,-0.265C4.471,-0.608 5.496,-1.857 5.496,-3.346C5.496,-5.099 4.075,-6.521 2.321,-6.521C1.9,-6.521 1.498,-6.438 1.13,-6.289C1.136,-6.363 1.139,-6.437 1.139,-6.512C1.139,-7.412 0.761,-8.22 0.159,-8.798C-0.411,-9.346 -1.183,-9.686 -2.036,-9.686C-2.997,-9.686 -3.848,-9.25 -4.43,-8.576" style="fill:rgb(255,98,0);fill-rule:nonzero;"/>
        </g>
        <g transform="matrix(20.291894,-13.394314,-20.291894,-13.394314,279.521854,175.314586)">
            <rect x="-1.625" y="0.673" width="3.25" height="3.25" style="fill:rgb(255,98,0);"/>
        </g>
    </g>
</svg>
